<svg xmlns="http://www.w3.org/2000/svg" width="38.095" height="46.598" viewBox="-0.3 0 10.079 12.329">
   <defs>
      <clipPath clipPathUnits="userSpaceOnUse" id="a">
         <path d="M473.452 610.624h28.571v-34.949h-28.571z" />
      </clipPath>
   </defs>
   <g clip-path="url(#a)" transform="matrix(.35278 0 0 -.35278 -167.323 215.415)">
      <path
         d="M475.41 610.624a1.959 1.959 0 01-1.795-2.737c.179-.408.463-1.249.463-1.985v-28.89a1.335 1.335 0 112.669 0v28.89c0 .736.283 1.577.459 1.985a1.958 1.958 0 01-1.795 2.737M497.152 596.974c-.27-.368-.267-.863.008-1.198a31.766 31.766 0 014.397-4.395c1.255-1.025-.381-1.772-.748-1.928-7.47-3.191-14.934 3.485-22.4 1.452v15.76c7.478 2.034 14.954-4.671 22.43-1.44.366.157.699.119.86-.127.16-.244.12-.664-.103-1.075a63.255 63.255 0 00-4.444-7.05"
         fill="#cccccc" />
   </g>
</svg>